<?xml version="1.0" encoding="iso-8859-1"?>
<!-- Generator: Adobe Illustrator 19.0.0, SVG Export Plug-In . SVG Version: 6.00 Build 0)  -->
<svg version="1.1" id="Capa_1" xmlns="http://www.w3.org/2000/svg" xmlns:xlink="http://www.w3.org/1999/xlink" x="0px" y="0px"
	 viewBox="0 0 512 512" style="enable-background:new 0 0 512 512;" xml:space="preserve">
<path style="fill:#F2F2F2;" d="M512,256c0,141.385-114.615,256-256,256c-55.808,0-107.436-17.857-149.504-48.17
	c-5.799-4.169-11.41-8.589-16.823-13.228C34.785,403.655,0,333.887,0,256C0,114.615,114.615,0,256,0S512,114.615,512,256z"/>
<g>
	<path style="fill:#5C5560;" d="M199.596,370.782c-3.396-21.765-15.224-37.449-35.777-45.62
		c-16.875-6.708-33.499-5.266-49.142,4.368c-2.863,1.766-5.423,3.95-8.213,6.489c0-4.002-0.042-7.576,0.021-11.149
		c0.021-1.118-0.303-1.484-1.442-1.473c-4.441,0.052-8.871,0.021-13.312,0.021c-2.058,0-2.058,0-2.058,2.09v125.095
		c5.413,4.639,11.024,9.059,16.823,13.228c-0.073-13.187-0.042-26.394-0.021-39.581c0-0.564-0.167-1.149,0.209-1.808
		c1.964,1.703,3.803,3.479,5.914,4.89c19.174,12.769,39.048,13.208,58.88,2.184C192.219,417.991,203.295,394.428,199.596,370.782z
		 M150.434,420.018c-16.081,3.521-33.656-3.427-42.59-16.823c-0.93-1.379-1.4-2.821-1.39-4.493c0.021-13.04,0.01-26.081,0-39.121
		c0-1.724,0.502-3.229,1.505-4.629c7.628-10.585,18.014-16.217,30.939-17.314c20.574-1.735,39.215,12.392,43.572,32.987
		c0.596,2.832,0.92,5.695,0.825,8.014C183.306,398.994,169.775,415.786,150.434,420.018z"/>
	<path style="fill:#5C5560;" d="M320.648,323.459c-4.598,0.084-9.195,0.084-13.793,0c-1.275-0.021-1.494,0.449-1.473,1.578
		c0.073,3.041,0.031,6.092,0.01,9.143c0,0.502,0.199,1.055-0.272,1.63c-1.881-1.672-3.72-3.354-5.747-4.796
		c-18.432-13.166-44.931-12.999-63.436,0.397c-19.675,14.242-28.536,38.39-22.727,61.858c6.217,25.109,27.794,42.747,52.778,43.656
		c12.037,0.439,23.03-2.56,32.946-9.446c2.184-1.526,4.18-3.281,6.468-5.35c0,4.012,0.052,7.586-0.021,11.149
		c-0.021,1.149,0.219,1.588,1.484,1.567c4.598-0.073,9.195-0.073,13.793,0c1.275,0.021,1.473-0.439,1.473-1.567
		c-0.031-36.091-0.031-72.171,0-108.251C322.132,323.887,321.902,323.438,320.648,323.459z M305.403,378.922
		c0,6.207-0.01,12.403,0.01,18.61c0.01,2.152-0.554,4.054-1.849,5.82c-7.502,10.146-17.492,15.945-30.062,17.168
		c-21.285,2.058-40.72-12.748-44.44-33.823c-4.002-22.653,9.853-43.907,32.35-48.368c16.185-3.197,30.229,1.369,40.981,14.44
		c2.152,2.612,3.197,5.507,3.072,8.997C305.257,367.47,305.403,373.196,305.403,378.922z"/>
	<path style="fill:#5C5560;" d="M388.07,411.098c2.59-6.191,26.536-63.501,35.995-86.27c0.488-1.174,1.051-1.587,2.334-1.567
		c5.184,0.082,10.371,0.063,15.555,0.013c1.208-0.011,1.616,0.091,1.032,1.44c-17.276,39.919-34.485,79.869-51.786,119.777
		c-4.663,10.755-12.1,18.79-23.495,22.639c-5.717,1.931-11.636,2.06-17.58,2.003c-0.745-0.007-1.033-0.237-1.029-1.016
		c0.026-4.972,0.033-9.943-0.002-14.914c-0.007-0.991,0.55-0.949,1.233-0.959c3.145-0.051,6.308,0.246,9.42-0.489
		c6.512-1.538,11.151-5.462,14.149-11.331c1.504-2.942,2.7-6.041,4.101-9.037c0.362-0.773,0.034-1.328-0.234-1.951
		c-8.085-18.774-38-88.176-44.867-104.104c-0.789-1.831-0.783-1.836,1.274-1.837c5.186-0.001,10.372,0.047,15.555-0.033
		c1.314-0.02,1.957,0.378,2.466,1.606C363.876,353.209,387.718,410.329,388.07,411.098z"/>
</g>
<g>
	<path style="fill:#6BCA3E;" d="M294.581,39.54l13.236-24.337c0.578-1.063,0.185-2.392-0.878-2.97s-2.392-0.185-2.97,0.878
		L290.69,37.525c-10.493-5.066-22.262-7.908-34.695-7.908l0,0c-12.433,0-24.201,2.842-34.695,7.908l-13.278-24.414
		c-0.578-1.063-1.907-1.456-2.97-0.878s-1.456,1.907-0.878,2.97L217.41,39.54c-22.526,12.445-38.406,35.445-40.964,62.331h159.097
		C332.987,74.985,317.107,51.985,294.581,39.54z"/>
	<path style="fill:#6BCA3E;" d="M176.081,227.473c0,10.037,8.137,18.175,18.175,18.175h13.209v39.41
		c0,10.077,8.169,18.246,18.246,18.246l0,0c10.077,0,18.246-8.169,18.246-18.246v-39.41h24.084v39.41
		c0,10.077,8.169,18.246,18.246,18.246l0,0c10.077,0,18.246-8.169,18.246-18.246v-39.41h13.209c10.037,0,18.174-8.137,18.174-18.175
		V110.63H176.081V227.473z"/>
	<path style="fill:#6BCA3E;" d="M361.092,106.981L361.092,106.981c-10.077,0-18.246,8.169-18.246,18.246v73.712
		c0,10.077,8.169,18.246,18.246,18.246l0,0c10.077,0,18.246-8.169,18.246-18.246v-73.712
		C379.338,115.15,371.169,106.981,361.092,106.981z"/>
	<path style="fill:#6BCA3E;" d="M150.901,106.981L150.901,106.981c-10.077,0-18.246,8.169-18.246,18.246v73.712
		c0,10.077,8.169,18.246,18.246,18.246l0,0c10.077,0,18.246-8.169,18.246-18.246v-73.712
		C169.147,115.15,160.978,106.981,150.901,106.981z"/>
</g>
<g>
	<circle style="fill:#FFFFFF;" cx="218.75" cy="66.84" r="7.299"/>
	<circle style="fill:#FFFFFF;" cx="293.24" cy="66.84" r="7.299"/>
</g>
<g>
</g>
<g>
</g>
<g>
</g>
<g>
</g>
<g>
</g>
<g>
</g>
<g>
</g>
<g>
</g>
<g>
</g>
<g>
</g>
<g>
</g>
<g>
</g>
<g>
</g>
<g>
</g>
<g>
</g>
</svg>
